<?xml version="1.0" standalone="no"?><!DOCTYPE svg PUBLIC "-//W3C//DTD SVG 1.1//EN" "http://www.w3.org/Graphics/SVG/1.1/DTD/svg11.dtd"><svg t="1656835774041" class="icon" viewBox="0 0 1024 1024" version="1.1" xmlns="http://www.w3.org/2000/svg" p-id="4404" xmlns:xlink="http://www.w3.org/1999/xlink" width="200" height="200"><defs><style type="text/css"></style></defs><path d="M568.888889 91.875556h292.977778v81.92h-237.795556zM861.866667 199.111111H625.777778l-46.648889 60.017778h55.466667a111.217778 111.217778 0 0 0 113.777777 113.777778 113.777778 113.777778 0 0 0 113.777778-113.777778z m-277.048889 561.777778L853.333333 406.186667h-273.066666a81.92 81.92 0 0 0-69.404445 32.142222l-224.142222 290.986667a54.613333 54.613333 0 1 0 85.333333 66.56l211.626667-256z m334.222222-354.702222a79.644444 79.644444 0 0 1 76.515556 85.333333V958.577778H584.817778v-128h369.777778v-58.595556H646.826667zM479.004444 958.577778a49.493333 49.493333 0 0 0 49.777778-52.622222V830.577778H107.235556v74.808889a50.346667 50.346667 0 0 0 50.062222 53.191111zM22.755556 779.662222a49.493333 49.493333 0 0 0 51.768888 50.915556h32.711112v-426.666667H75.093333A50.346667 50.346667 0 0 0 22.755556 455.111111z m0 0" p-id="4405"></path></svg>