<?xml version="1.0" standalone="no"?><!DOCTYPE svg PUBLIC "-//W3C//DTD SVG 1.1//EN" "http://www.w3.org/Graphics/SVG/1.1/DTD/svg11.dtd"><svg t="1656820824134" class="icon" viewBox="0 0 1024 1024" version="1.1" xmlns="http://www.w3.org/2000/svg" p-id="3525" xmlns:xlink="http://www.w3.org/1999/xlink" width="200" height="200"><defs><style type="text/css"></style></defs><path d="M508.576 64a435.296 435.296 0 0 1 179.808 38.688 178.688 178.688 0 0 0-22.592 77.68 357.488 357.488 0 0 0-80.864-28.032 562.928 562.928 0 0 1 84.8 135.856h20.688a415.712 415.712 0 0 0 50.144 77.424l2.288 2.816h-44.8a568.304 568.304 0 0 1 18.416 109.856h156.24q-1.6-14.784-4.24-29.408l13.904-11.936 7.344-6.672 11.072-10.448q17.088-16.752 32.944-34.752a464.88 464.88 0 0 1-39.168 358.88v1.6h-0.944a442.672 442.672 0 0 1-385.04 227.2C263.056 972.752 64 769.312 64 518.352S263.056 64 508.576 64z m290.896 681.584h-128.56a563.44 563.44 0 0 1-85.984 138.848 365.392 365.392 0 0 0 214.544-138.848z m-453.232 0h-128.56a365.344 365.344 0 0 0 214.56 138.848 563.024 563.024 0 0 1-86-138.848z m237.392 0h-150.112a482.848 482.848 0 0 0 75.056 105.6 481.152 481.152 0 0 0 75.056-105.6z m288.96-187.072h-156.208a571.072 571.072 0 0 1-17.6 106.896h146.608a378.16 378.16 0 0 0 27.2-106.896z m-571.856 0H144.56a378.144 378.144 0 0 0 27.2 106.896h146.608a571.088 571.088 0 0 1-17.6-106.896z m336.976 0H379.44a487.744 487.744 0 0 0 20.8 106.896h216.688a486.4 486.4 0 0 0 20.784-106.896zM144.528 478.32h156.208a575.424 575.424 0 0 1 18.448-109.92h-146.128a378.256 378.256 0 0 0-28.496 109.888z m234.912 0h258.272a486.912 486.912 0 0 0-21.712-109.888H401.152a488.192 488.192 0 0 0-21.712 109.856z m465.824-414.4a127.072 127.072 0 0 1 127.504 126.656l-0.096 4.464c-1.6 41.824-24.848 88.88-63.072 136.64a544.608 544.608 0 0 1-64.336 67.2 544.608 544.608 0 0 1-64.336-67.2c-38.192-47.76-61.472-94.816-63.072-136.64v-4.496a127.04 127.04 0 0 1 127.472-126.624zM432.192 152.368l-3.2 0.704a365.312 365.312 0 0 0-209.088 135.152h127.6a563.456 563.456 0 0 1 84.704-135.888z m76.384 33.232l-5.744 6.224a482.384 482.384 0 0 0-67.744 96.384h146.992a482.272 482.272 0 0 0-73.504-102.624z m336.72-28.544a37.248 37.248 0 1 0 36.432 37.232 36.8 36.8 0 0 0-36.432-37.248z" p-id="3526"></path></svg>