<?xml version="1.0" standalone="no"?><!DOCTYPE svg PUBLIC "-//W3C//DTD SVG 1.1//EN" "http://www.w3.org/Graphics/SVG/1.1/DTD/svg11.dtd"><svg t="1656819000988" class="icon" viewBox="0 0 1024 1024" version="1.1" xmlns="http://www.w3.org/2000/svg" p-id="2809" xmlns:xlink="http://www.w3.org/1999/xlink" width="200" height="200"><defs><style type="text/css"></style></defs><path d="M512 960C264.533333 960 64 759.466667 64 512S264.533333 64 512 64c238.933333 0 435.2 187.733333 448 426.666667 0 12.8-8.533333 21.333333-21.333333 21.333333s-21.333333-8.533333-21.333334-19.2C906.666667 275.2 727.466667 106.666667 512 106.666667 288 106.666667 106.666667 288 106.666667 512s181.333333 405.333333 405.333333 405.333333c34.133333 0 66.133333-4.266667 98.133333-12.8 10.666667-2.133333 23.466667 4.266667 25.6 14.933334 2.133333 10.666667-4.266667 23.466667-14.933333 25.6-36.266667 10.666667-72.533333 14.933333-108.8 14.933333z" p-id="2810"></path><path d="M832 746.666667c-6.4 0-12.8-2.133333-17.066667-8.533334l-89.6-106.666666c-8.533333-8.533333-6.4-23.466667 2.133334-29.866667 8.533333-8.533333 23.466667-6.4 29.866666 2.133333l72.533334 87.466667 72.533333-87.466667c8.533333-8.533333 21.333333-10.666667 29.866667-2.133333 8.533333 8.533333 10.666667 21.333333 2.133333 29.866667l-89.6 106.666666c0 6.4-6.4 8.533333-12.8 8.533334zM938.666667 853.333333H725.333333c-12.8 0-21.333333-8.533333-21.333333-21.333333s8.533333-21.333333 21.333333-21.333333h213.333334c12.8 0 21.333333 8.533333 21.333333 21.333333s-8.533333 21.333333-21.333333 21.333333z" p-id="2811"></path><path d="M938.666667 746.666667H725.333333c-12.8 0-21.333333-8.533333-21.333333-21.333334s8.533333-21.333333 21.333333-21.333333h213.333334c12.8 0 21.333333 8.533333 21.333333 21.333333s-8.533333 21.333333-21.333333 21.333334z" p-id="2812"></path><path d="M832 960c-12.8 0-21.333333-8.533333-21.333333-21.333333V725.333333c0-12.8 8.533333-21.333333 21.333333-21.333333s21.333333 8.533333 21.333333 21.333333v213.333334c0 12.8-8.533333 21.333333-21.333333 21.333333z" p-id="2813"></path><path d="M661.333333 597.333333H362.666667c-12.8 0-21.333333-8.533333-21.333334-21.333333s8.533333-21.333333 21.333334-21.333333h298.666666c12.8 0 21.333333 8.533333 21.333334 21.333333s-8.533333 21.333333-21.333334 21.333333z" p-id="2814"></path><path d="M454.4 691.2c-6.4 0-10.666667-2.133333-14.933333-6.4l-91.733334-93.866667c-8.533333-8.533333-8.533333-21.333333 0-29.866666 8.533333-8.533333 21.333333-8.533333 29.866667 0l91.733333 93.866666c8.533333 8.533333 8.533333 21.333333 0 29.866667-4.266667 4.266667-10.666667 6.4-14.933333 6.4z" p-id="2815"></path><path d="M661.333333 469.333333H362.666667c-12.8 0-21.333333-8.533333-21.333334-21.333333s8.533333-21.333333 21.333334-21.333333h298.666666c12.8 0 21.333333 8.533333 21.333334 21.333333s-8.533333 21.333333-21.333334 21.333333z" p-id="2816"></path><path d="M661.333333 469.333333c-6.4 0-10.666667-2.133333-14.933333-6.4L554.666667 369.066667c-8.533333-8.533333-8.533333-21.333333 0-29.866667 8.533333-8.533333 21.333333-8.533333 29.866666 0l91.733334 93.866667c8.533333 8.533333 8.533333 21.333333 0 29.866666-4.266667 4.266667-8.533333 6.4-14.933334 6.4z" p-id="2817"></path></svg>